<?xml version="1.0" standalone="no"?>
<!DOCTYPE svg PUBLIC "-//W3C//DTD SVG 20010904//EN"
 "http://www.w3.org/TR/2001/REC-SVG-20010904/DTD/svg10.dtd">
<svg version="1.0" xmlns="http://www.w3.org/2000/svg"
 width="225.000000pt" height="225.000000pt" viewBox="0 0 225.000000 225.000000"
 preserveAspectRatio="xMidYMid meet">

<g transform="translate(0.000000,225.000000) scale(0.100000,-0.100000)"
fill="#000000" stroke="none">
<path d="M1120 2212 c0 -8 -58 -73 -81 -90 -23 -17 -124 -42 -218 -53 -194
-22 -224 -45 -267 -196 -2 -9 -25 -13 -71 -13 -109 0 -151 -37 -238 -210 -58
-115 -114 -185 -170 -210 -24 -11 -48 -20 -54 -20 -23 0 -21 -23 3 -49 48 -50
58 -137 31 -278 -8 -43 -15 -105 -15 -139 0 -71 23 -114 83 -153 42 -28 43
-34 21 -105 -27 -87 -14 -113 130 -257 125 -126 166 -184 166 -238 0 -55 3
-56 95 -52 93 3 104 0 248 -68 194 -94 222 -94 313 -9 l32 30 33 -29 c19 -16
46 -37 61 -46 29 -18 107 -23 136 -8 9 5 78 38 152 73 126 59 140 63 205 63
39 0 84 -2 100 -5 43 -7 47 30 6 59 -21 15 -28 27 -24 41 6 23 23 27 23 6 0
-31 25 -20 44 18 10 23 68 89 131 151 107 104 135 139 135 165 0 6 -10 10 -21
8 -18 -2 -24 5 -36 47 -25 85 -28 125 -9 125 9 0 16 -5 16 -12 0 -7 6 -6 18 3
9 8 34 22 55 32 36 16 81 72 73 92 -2 6 -13 9 -25 8 -18 -2 -21 3 -21 30 0 17
-9 73 -20 122 -28 127 -35 214 -20 259 l12 38 17 -26 17 -26 15 38 c7 20 16
41 18 46 2 5 -11 7 -28 4 -17 -2 -31 -1 -31 3 0 5 -12 15 -27 23 -54 27 -104
90 -159 200 -69 135 -88 163 -128 187 -20 12 -25 19 -14 19 23 0 28 22 9 37
-27 21 -70 15 -95 -12 -42 -45 -73 -25 -95 61 -12 43 -38 73 -86 98 -21 11
-24 16 -12 16 10 0 15 5 12 10 -3 6 2 10 12 11 44 1 -63 28 -160 39 -111 13
-136 9 -102 -17 19 -14 18 -15 -20 -9 -22 3 -65 18 -95 34 l-55 28 -3 57 c-2
31 -7 57 -12 57 -6 0 -10 -3 -10 -8z m-10 -414 l20 -33 0 33 c0 17 5 32 10 32
6 0 10 -22 10 -50 0 -57 -9 -62 -39 -22 l-20 27 -1 -27 c0 -16 -4 -28 -10 -28
-5 0 -10 23 -10 50 0 58 12 63 40 18z m-78 -20 c25 -40 29 -73 5 -49 -14 14
-47 14 -47 1 0 -20 -44 -29 -67 -14 -29 18 -33 18 -33 -6 0 -36 -17 -21 -30
25 -14 50 -7 69 14 40 13 -18 14 -18 20 2 4 12 14 24 22 27 11 4 14 2 11 -6
-3 -7 -8 -20 -12 -29 -4 -11 2 -22 19 -32 29 -19 31 -17 41 41 4 23 12 42 18
42 7 0 24 -19 39 -42z m218 22 c0 -23 28 -27 36 -5 4 8 11 15 16 15 9 0 5 -34
-8 -82 -8 -28 -27 -21 -20 7 5 20 3 25 -13 25 -10 0 -21 -9 -24 -20 -3 -11
-10 -20 -17 -20 -11 0 -9 29 6 83 7 23 24 22 24 -3z m145 -61 c8 -60 2 -70
-25 -41 -22 23 -40 29 -40 12 0 -5 -4 -10 -10 -10 -5 0 -10 5 -10 11 0 16 53
77 67 78 6 1 14 -21 18 -50z m-555 -15 c23 -53 23 -54 10 -54 -12 0 -50 81
-43 93 8 14 14 7 33 -39z m657 11 l28 -25 -23 -19 c-13 -12 -20 -25 -16 -35 8
-21 7 -21 54 10 21 14 43 23 48 20 14 -8 -10 -98 -28 -104 -9 -3 -11 1 -7 11
7 19 -17 42 -34 32 -18 -12 -59 16 -59 41 0 31 -17 39 -25 13 -5 -14 -10 -18
-17 -11 -11 11 26 92 42 92 5 0 22 -11 37 -25z m-708 -21 c28 -35 26 -48 -6
-74 -26 -20 -28 -21 -41 -3 -7 10 -20 30 -28 45 -13 26 -13 28 13 42 37 20 38
20 62 -10z m-59 -101 c0 -7 -3 -13 -7 -13 -13 1 -63 77 -55 84 8 8 61 -53 62
-71z m353 50 c-13 -2 -23 -9 -23 -14 0 -5 10 -10 23 -10 l22 -2 -22 -4 c-32
-6 -29 -23 4 -23 19 0 24 -3 16 -11 -6 -6 -21 -9 -34 -7 -20 2 -25 10 -27 41
-3 36 -2 37 30 36 23 -1 26 -3 11 -6z m71 -15 l16 -22 0 22 c0 12 5 22 10 22
11 0 12 -22 1 -60 l-7 -24 -17 24 c-13 19 -17 21 -17 7 0 -9 -4 -17 -10 -17
-5 0 -10 16 -10 35 0 40 12 45 34 13z m-134 0 c0 -7 3 -23 6 -35 4 -13 2 -23
-4 -23 -6 0 -13 10 -15 23 -4 19 -4 18 -6 -5 -1 -34 -14 -36 -29 -5 -10 20
-11 19 -5 -8 4 -20 2 -27 -5 -20 -5 6 -13 25 -17 43 -8 39 15 46 33 10 10 -23
11 -23 11 5 1 27 31 41 31 15z m233 -20 c-7 -39 -23 -61 -23 -32 0 30 11 64
21 64 5 0 6 -15 2 -32z m51 0 c12 -28 14 -30 15 -10 1 12 6 22 11 22 11 0 4
-42 -10 -69 -6 -11 -12 -7 -23 15 -11 20 -16 24 -17 12 0 -10 -5 -18 -11 -18
-6 0 -8 9 -4 23 4 12 9 30 11 40 7 24 12 22 28 -15z m-634 0 c26 -28 25 -42
-2 -68 -29 -27 -33 -26 -64 15 -26 34 -26 36 -9 55 24 26 49 25 75 -2z m250 2
c0 -5 -6 -10 -14 -10 -8 0 -18 -5 -22 -11 -5 -9 1 -10 20 -5 15 4 26 2 26 -4
0 -5 -6 -10 -14 -10 -8 0 -18 -5 -22 -11 -5 -8 1 -10 20 -7 28 6 36 -6 10 -16
-27 -10 -41 -7 -47 12 -2 9 -8 24 -11 33 -5 10 1 19 16 27 30 14 38 14 38 2z
m770 -46 c0 -23 -27 -36 -50 -24 -16 8 -25 8 -35 0 -27 -23 -23 8 7 44 l30 37
24 -22 c13 -12 24 -28 24 -35z m-270 19 c3 -3 -4 -4 -15 -3 -35 4 -39 0 -19
-15 19 -16 19 -16 -1 -13 -11 2 -25 -3 -32 -12 -18 -22 -17 4 2 41 14 26 18
28 38 18 12 -7 24 -14 27 -16z m-567 -30 c17 -34 12 -53 -14 -53 -10 0 -19 -5
-19 -11 0 -5 -4 -8 -9 -5 -15 10 -40 -5 -34 -20 3 -8 0 -14 -5 -14 -13 0 -34
69 -26 82 3 5 21 -1 40 -12 19 -12 34 -17 34 -11 0 6 7 11 15 11 14 0 14 3 0
30 -9 17 -11 30 -6 30 6 0 17 -12 24 -27z m621 1 c21 -21 20 -37 -5 -60 -15
-14 -24 -16 -37 -8 -23 15 -26 48 -7 68 20 20 29 20 49 0z m-887 -20 c44 -34
42 -47 -7 -42 l-39 3 21 -22 c34 -36 14 -38 -26 -3 -48 42 -46 54 7 47 41 -6
41 -6 20 9 -22 16 -31 34 -16 34 3 0 21 -11 40 -26z m1156 -10 c9 -9 -42 -106
-53 -99 -5 3 -7 12 -3 20 7 19 -14 45 -32 39 -7 -3 -16 -1 -19 4 -3 6 13 17
36 25 49 18 62 20 71 11z m-456 -29 c189 -64 316 -216 345 -415 27 -180 -59
-378 -203 -471 -27 -18 -57 -34 -67 -35 -9 -2 -42 -11 -72 -20 -36 -11 -89
-17 -155 -17 -84 0 -111 4 -168 26 -84 33 -143 73 -196 134 -47 52 -95 146
-110 213 -24 105 -4 239 51 343 33 61 142 184 160 179 5 -1 7 2 3 7 -7 12 63
49 125 67 80 22 202 17 287 -11z m255 8 c22 -20 23 -39 3 -47 -8 -3 -15 -12
-15 -21 0 -8 -4 -15 -10 -15 -5 0 -10 11 -10 25 0 14 -4 25 -10 25 -5 0 -10
-5 -10 -11 0 -5 -4 -7 -10 -4 -6 4 -1 18 12 36 25 34 26 34 50 12z m-815 -35
c30 -28 29 -42 -2 -36 -21 4 -23 3 -14 -9 21 -24 0 -27 -26 -3 -33 31 -32 43
5 38 28 -4 29 -4 13 14 -23 25 -4 23 24 -4z m-253 -24 c-18 -26 -4 -34 16 -9
18 22 32 18 20 -5 -16 -31 -1 -44 20 -18 26 33 33 18 9 -19 l-21 -32 -39 26
c-21 14 -39 28 -39 30 0 16 33 63 40 58 6 -4 3 -16 -6 -31z m1126 3 c0 -7 -6
-19 -12 -26 -11 -10 -8 -11 13 -6 37 9 44 -9 13 -34 -30 -24 -52 -28 -35 -7
10 12 8 13 -8 9 -24 -6 -27 6 -8 27 10 12 9 12 -6 1 -31 -24 -32 -1 -2 24 34
28 45 31 45 12z m193 7 c3 -4 0 -19 -9 -35 -13 -26 -4 -43 11 -19 7 12 35 14
35 3 0 -10 -66 -53 -81 -53 -11 0 -9 16 7 55 8 19 7 19 -18 3 -16 -10 -29 -14
-33 -8 -3 5 11 20 32 34 42 27 47 29 56 20z m-1099 -64 c7 -7 4 -10 -7 -10 -9
0 -18 -4 -18 -10 -3 -20 -5 -25 -16 -45 -10 -17 -13 -17 -30 -5 -17 14 -17 14
0 -7 20 -23 10 -37 -20 -27 -16 6 -16 5 2 -9 26 -22 2 -22 -30 -1 -33 21 -32
34 3 34 26 1 26 1 8 15 -32 24 -5 42 28 20 33 -22 43 -14 22 17 -26 37 -21 51
16 44 18 -3 37 -11 42 -16z m-243 -11 c16 -8 19 -17 14 -40 -4 -18 -3 -29 4
-29 6 0 11 -7 11 -15 0 -13 -7 -12 -42 6 -24 12 -44 23 -46 24 -5 4 27 65 34
65 3 0 14 -5 25 -11z m1219 -31 c-1 -7 -12 -26 -25 -43 l-25 -30 0 28 c0 17
-5 27 -15 27 -21 0 -19 18 3 23 34 9 62 7 62 -5z m39 -54 c6 -15 9 -29 5 -33
-4 -3 -9 0 -11 6 -4 10 -11 9 -33 -2 -16 -8 -31 -11 -34 -6 -3 5 8 14 25 21
18 8 28 18 25 26 -10 26 11 14 23 -12z m169 1 c14 -31 6 -55 -19 -55 -10 0
-19 -5 -19 -11 0 -24 -43 -2 -55 29 -14 32 -14 33 18 46 47 21 62 19 75 -9z
m-1467 -57 c48 -14 50 -32 7 -45 l-33 -10 28 -8 c26 -7 38 -25 16 -25 -27 0
-89 24 -86 33 2 6 19 16 38 22 l34 12 -33 7 c-18 4 -30 12 -26 17 7 11 9 11
55 -3z m1319 4 c0 -11 -46 -32 -68 -31 -9 0 1 9 23 20 47 22 45 21 45 11z
m-1163 -14 c30 -11 45 -28 24 -28 -19 0 -71 23 -71 31 0 12 7 11 47 -3z m1348
-55 c4 -20 3 -33 -4 -33 -5 0 -11 10 -13 22 -2 12 -9 23 -16 26 -9 3 -11 -3
-6 -22 4 -16 2 -26 -5 -26 -6 0 -11 9 -11 20 0 12 -7 20 -16 20 -12 0 -14 -7
-9 -30 8 -35 -10 -42 -19 -7 -12 45 -7 54 37 64 49 11 53 9 62 -34z m-175 27
c0 -5 -5 -10 -11 -10 -6 0 -1 -9 12 -21 l24 -20 -23 6 c-17 5 -27 1 -37 -12
-7 -10 -17 -15 -21 -10 -4 4 -2 13 4 19 17 17 15 26 -5 31 -15 3 -14 6 7 15
32 14 50 15 50 2z m-1219 -24 c-7 -8 -10 -20 -6 -26 10 -16 45 -12 45 6 0 8
-4 12 -10 9 -5 -3 -10 1 -10 9 0 10 9 16 21 16 16 0 20 -5 17 -26 -6 -51 -67
-58 -76 -10 -4 18 17 50 26 41 3 -2 -1 -11 -7 -19z m-105 -72 c-19 -19 -20
-26 -4 -42 6 -6 9 -15 5 -18 -9 -9 -99 45 -92 56 9 14 99 39 103 29 2 -5 -4
-16 -12 -25z m1347 -1 c14 -8 7 -18 -24 -35 -38 -22 -56 -23 -39 -3 10 13 9
19 -6 36 -19 21 -19 21 21 14 22 -4 43 -10 48 -12z m165 -30 c-3 -35 -6 -38
-33 -38 -16 0 -36 -4 -43 -9 -24 -15 -28 5 -4 24 27 22 28 30 2 30 -20 0 -26
11 -13 23 3 4 26 7 50 7 l44 0 -3 -37z m-1426 1 c-4 -22 -2 -25 18 -22 13 1
25 9 28 16 2 7 -2 10 -12 6 -11 -4 -16 -1 -16 10 0 21 36 21 44 0 3 -8 1 -24
-5 -35 -21 -40 -92 -7 -76 35 10 26 25 19 19 -10z m-157 -76 c-5 -22 -4 -30 3
-23 6 6 12 19 14 30 2 14 11 20 28 20 22 0 25 -4 25 -34 0 -19 -6 -36 -12 -38
-9 -3 -11 5 -6 29 6 35 -3 33 -21 -4 -15 -31 -50 -30 -54 0 -3 20 12 52 25 52
3 0 2 -15 -2 -32z m215 6 c0 -4 -8 -13 -17 -20 -17 -13 -17 -13 0 -14 37 0 15
-20 -23 -20 -46 0 -51 11 -13 31 l26 14 -29 6 c-25 6 -24 7 14 8 23 0 42 -2
42 -5z m1175 -4 c3 -5 12 -7 20 -3 10 3 15 -1 15 -14 0 -27 -10 -35 -27 -22
-10 9 -13 8 -13 -3 0 -7 -8 -14 -19 -15 -14 -1 -19 5 -19 25 0 15 2 30 5 35 6
10 31 9 38 -3z m135 -10 c0 -5 -4 -10 -10 -10 -5 0 -10 -7 -10 -15 0 -23 16
-18 29 11 7 16 18 24 29 22 23 -4 28 -51 6 -69 -15 -12 -16 -11 -10 21 l7 35
-20 -32 c-23 -36 -22 -36 -45 -27 -16 6 -22 54 -9 67 10 11 33 8 33 -3z
m-1440 -59 c0 -6 -4 -13 -10 -16 -16 -10 -12 -37 7 -51 28 -20 12 -23 -42 -10
-61 16 -64 33 -10 63 44 25 55 28 55 14z m120 -12 c-37 -10 -60 -10 -60 0 0
11 59 19 75 12 5 -3 -1 -8 -15 -12z m1370 -66 c0 -6 -23 -16 -51 -22 -54 -12
-77 -7 -46 10 19 11 23 44 7 54 -6 4 -8 10 -5 15 7 11 94 -41 95 -57z m-1376
31 c14 3 27 2 31 -3 3 -6 -10 -13 -29 -16 -24 -5 -33 -11 -29 -21 3 -8 0 -14
-6 -14 -6 0 -11 6 -11 13 0 6 -3 23 -7 37 -6 22 -5 24 10 11 10 -8 27 -11 41
-7z m1211 -5 c5 -6 2 -9 -10 -9 -15 0 -16 -3 -7 -12 7 -7 12 -19 12 -27 0 -12
-3 -11 -18 2 -12 11 -22 13 -32 7 -20 -13 -30 -12 -30 0 0 6 10 15 23 19 19 8
20 10 5 16 -10 4 -18 12 -18 17 0 11 60 1 75 -13z m-1328 -63 c14 4 23 2 23
-5 0 -6 -4 -11 -10 -11 -5 0 -25 -14 -45 -31 -25 -22 -35 -27 -35 -16 0 9 5
19 10 22 16 10 12 22 -10 28 -11 3 -20 10 -20 15 0 7 11 8 32 2 17 -5 42 -7
55 -4z m1298 -26 c3 -6 3 -19 0 -31 -10 -31 -69 -23 -73 10 -7 45 49 60 73 21z
m-1125 11 c0 -5 -7 -12 -16 -15 -22 -8 -6 -28 17 -21 33 11 21 -11 -17 -29
-37 -17 -64 -13 -31 5 22 13 13 29 -16 29 -18 1 -16 4 13 20 39 22 50 24 50
11z m1298 -41 c-2 -11 -13 -14 -38 -12 l-35 4 27 -21 c15 -13 25 -28 22 -36
-5 -12 -13 -11 -52 3 -25 9 -43 22 -41 27 2 6 6 9 9 8 46 -16 46 -16 23 1 -31
23 -29 36 5 37 26 0 27 0 4 10 -13 5 -21 13 -17 18 9 16 96 -21 93 -39z
m-1442 -7 c-6 -29 4 -56 20 -53 5 1 10 -3 12 -9 5 -15 -95 -15 -104 0 -5 9 61
89 74 89 2 0 1 -12 -2 -27z m173 -25 c-3 -25 1 -38 12 -38 7 0 22 -12 35 -27
l23 -27 -21 -23 c-12 -13 -29 -23 -37 -23 -11 1 -8 7 11 23 24 20 25 24 13 41
-11 14 -21 17 -49 12 -44 -8 -51 3 -23 42 23 33 39 41 36 20z m1042 -9 c34
-24 29 -44 -9 -34 -26 6 -26 6 -9 -13 27 -29 3 -38 -33 -12 -32 22 -40 36 -16
27 10 -4 12 0 8 15 -4 17 -2 19 19 13 23 -7 24 -7 4 9 -31 24 2 20 36 -5z
m138 -58 c17 -21 28 -41 24 -45 -8 -8 -61 -6 -93 4 -24 7 -24 8 -5 15 26 11
36 26 29 48 -9 29 13 19 45 -22z m-1294 -10 c3 -5 -4 -12 -14 -16 -11 -3 -23
-14 -26 -25 -3 -10 -13 -24 -22 -31 -14 -12 -15 -10 -9 19 6 25 5 31 -7 27 -7
-3 -20 1 -27 10 -12 14 -9 16 28 14 23 -2 45 0 48 4 10 10 22 9 29 -2z m1101
-12 c18 -17 21 -26 13 -40 -10 -20 -44 -26 -54 -9 -3 5 -1 18 4 28 7 13 7 22
-1 30 -22 22 15 13 38 -9z m-872 -51 c16 -26 -4 -53 -40 -53 -23 0 -30 5 -32
24 -7 45 48 66 72 29z m825 -12 c12 -13 18 -27 13 -30 -5 -3 -17 3 -27 14 -10
11 -22 20 -27 20 -13 0 -9 -27 7 -40 8 -7 15 -17 15 -23 0 -6 -11 0 -25 13
-24 23 -32 50 -18 63 13 14 40 6 62 -17z m-1004 -26 c17 0 17 -1 1 -19 -10
-11 -14 -25 -9 -37 6 -17 5 -17 -11 -5 -13 11 -20 11 -28 3 -18 -18 -27 -14
-21 8 3 11 0 27 -7 35 -10 13 -9 15 9 15 13 0 21 6 21 18 1 16 1 16 14 0 7
-10 21 -18 31 -18z m1207 0 c21 0 21 -1 3 -14 -12 -9 -16 -20 -12 -35 5 -19 3
-20 -10 -10 -12 10 -19 10 -35 0 -18 -11 -20 -11 -14 4 4 11 0 25 -10 36 -16
18 -16 19 3 19 12 0 24 8 28 18 6 16 7 16 16 0 6 -10 20 -18 31 -18z m-986
-17 c-5 -12 -1 -14 19 -9 l26 7 -23 -36 c-25 -37 -43 -47 -33 -16 5 15 1 18
-21 13 -19 -3 -25 -1 -20 7 4 6 14 11 22 11 8 0 14 10 14 26 0 15 4 23 11 19
6 -4 8 -14 5 -22z m723 -29 c24 15 10 -13 -15 -29 -25 -16 -26 -16 -20 3 4 11
0 24 -9 32 -8 7 -15 20 -15 29 1 11 7 8 24 -13 13 -16 29 -25 35 -22z m-619
-17 c0 -6 -11 -27 -36 -65 -4 -6 -44 23 -44 31 0 4 9 3 20 -3 25 -13 26 -2 3
17 -16 13 -16 14 10 8 31 -6 37 10 7 20 -11 4 -18 10 -15 15 6 9 55 -11 55
-23z m545 3 c20 -39 19 -45 -10 -58 -16 -7 -25 -8 -25 -1 0 5 7 12 15 15 8 4
15 10 15 15 0 6 -9 5 -20 -1 -11 -6 -20 -7 -20 -1 0 5 7 12 16 15 8 3 12 10 9
16 -4 7 -13 7 -26 0 -10 -6 -19 -7 -19 -2 0 7 28 26 47 31 1 1 9 -12 18 -29z
m-776 -26 c11 -14 17 -32 14 -40 -7 -20 -12 -18 -23 11 -10 26 -30 34 -30 13
0 -7 7 -21 15 -32 19 -25 3 -56 -30 -56 -28 0 -60 41 -51 66 7 19 26 9 26 -16
0 -19 26 -35 34 -21 3 4 -1 17 -9 27 -18 23 -19 46 -3 62 18 18 35 14 57 -14z
m707 -10 c13 -30 13 -38 2 -46 -22 -14 -53 -5 -53 16 0 11 -6 21 -13 24 -6 2
-12 8 -12 14 0 6 7 7 15 4 8 -3 21 -9 29 -12 11 -4 13 0 9 15 -9 34 7 24 23
-15z m-415 9 c11 -13 11 -17 2 -20 -7 -3 -13 -13 -13 -23 0 -20 -21 -32 -38
-21 -6 4 -9 20 -7 36 2 17 4 33 4 38 2 14 39 7 52 -10z m204 -23 c8 0 15 -4
15 -10 0 -5 -5 -10 -11 -10 -7 0 -9 -10 -7 -25 5 -25 -5 -34 -17 -15 -4 7 -13
6 -27 -1 -18 -10 -20 -9 -14 6 4 11 0 25 -10 36 -16 18 -16 19 5 19 12 0 24 7
28 16 5 15 7 15 15 0 5 -9 16 -16 23 -16z m512 -40 c3 0 15 7 25 17 10 9 21
13 25 10 7 -8 -47 -69 -57 -65 -21 9 -81 89 -74 99 5 8 18 1 41 -24 18 -21 36
-37 40 -37z m-887 -27 c0 -16 -12 -17 -27 -2 -8 8 -17 -1 -34 -30 -12 -23 -29
-41 -36 -41 -19 0 -16 11 13 54 24 35 25 40 10 48 -9 5 -14 13 -11 19 8 12 85
-32 85 -48z m850 -36 c0 -5 -10 -7 -22 -4 -28 8 -58 -9 -58 -33 0 -45 -20 -25
-33 32 -20 88 -9 96 59 51 30 -20 54 -40 54 -46z m-806 -16 l-1 -43 24 31 c25
31 53 33 53 2 -1 -26 -46 -105 -54 -93 -3 6 -2 23 4 39 l10 28 -24 -29 c-29
-35 -47 -27 -40 17 l5 32 -16 -27 c-15 -26 -35 -38 -35 -20 0 4 10 31 22 60
29 65 53 67 52 3z m636 24 c0 -5 -8 -10 -18 -11 -9 -1 -23 -2 -29 -3 -15 -1
-17 -39 -4 -59 10 -17 53 -12 59 7 3 10 0 12 -11 8 -24 -9 -31 10 -8 22 26 15
29 14 41 -8 13 -26 5 -46 -26 -60 -36 -16 -51 -14 -74 11 -27 29 -26 73 3 93
23 17 68 17 67 0z m-510 -40 c0 -34 -25 -105 -37 -105 -16 0 -16 5 2 68 15 49
35 70 35 37z m390 6 c0 -5 -13 -11 -30 -14 -17 -4 -30 -13 -30 -21 0 -11 6
-13 30 -6 23 7 30 5 30 -6 0 -8 -9 -14 -20 -14 -19 0 -38 -25 -28 -35 2 -3 19
-1 36 4 24 7 32 6 32 -4 0 -13 -30 -25 -66 -25 -17 0 -24 9 -33 44 -16 63 -14
74 12 79 40 8 67 7 67 -2z m-340 -28 l0 -26 23 21 c13 12 32 22 42 22 17 0 16
-2 -5 -25 -23 -25 -23 -26 -7 -60 21 -43 21 -45 3 -45 -7 0 -19 14 -26 30 -14
34 -33 35 -38 2 -2 -12 -10 -22 -17 -22 -11 0 -13 12 -9 53 3 28 7 58 10 65 7
22 24 12 24 -15z m230 7 c0 -5 -7 -10 -16 -10 -12 0 -15 -10 -13 -52 4 -69
-17 -76 -26 -8 -6 40 -11 50 -26 50 -21 0 -26 16 -6 23 22 10 87 7 87 -3z"/>
<path d="M995 1770 c-3 -5 -1 -10 4 -10 6 0 11 5 11 10 0 6 -2 10 -4 10 -3 0
-8 -4 -11 -10z"/>
<path d="M1355 1740 c-3 -5 -1 -10 4 -10 6 0 11 5 11 10 0 6 -2 10 -4 10 -3 0
-8 -4 -11 -10z"/>
<path d="M1462 1719 c2 -7 10 -15 17 -17 8 -3 12 1 9 9 -2 7 -10 15 -17 17 -8
3 -12 -1 -9 -9z"/>
<path d="M1557 1653 c-4 -3 -7 -11 -7 -17 0 -6 5 -5 12 2 6 6 9 14 7 17 -3 3
-9 2 -12 -2z"/>
<path d="M730 1702 c0 -4 7 -18 16 -30 12 -18 19 -20 30 -11 10 8 11 16 3 30
-9 18 -49 27 -49 11z"/>
<path d="M615 1620 c-3 -5 2 -21 11 -35 15 -24 19 -25 32 -11 14 14 14 17 -3
36 -20 22 -31 25 -40 10z"/>
<path d="M1646 1603 c-11 -11 -6 -23 9 -23 8 0 15 4 15 9 0 13 -16 22 -24 14z"/>
<path d="M765 1520 c3 -5 8 -10 11 -10 2 0 4 5 4 10 0 6 -5 10 -11 10 -5 0 -7
-4 -4 -10z"/>
<path d="M1430 1550 c-9 -16 -8 -22 5 -26 21 -8 39 10 32 30 -9 22 -24 20 -37
-4z"/>
<path d="M1701 1521 c-8 -5 -9 -11 -3 -15 5 -3 12 1 16 9 6 17 6 18 -13 6z"/>
<path d="M1386 1362 c-3 -6 -1 -14 5 -18 6 -3 19 -24 29 -46 14 -32 15 -47 7
-84 -11 -49 -1 -72 27 -61 21 8 20 32 -4 110 -22 70 -52 118 -64 99z"/>
<path d="M1076 981 c-4 -26 -18 -53 -41 -77 l-36 -38 56 -55 55 -56 0 48 c0
27 -5 57 -11 68 -13 25 4 49 33 49 24 0 35 -27 20 -51 -7 -10 -12 -40 -12 -66
l0 -48 57 57 56 57 -31 35 c-17 20 -36 54 -42 76 -10 39 -12 40 -54 40 -43 0
-44 -1 -50 -39z"/>
<path d="M1253 734 c11 -11 -165 -105 -193 -103 -8 0 4 7 28 16 23 8 42 18 42
23 0 4 11 11 25 14 14 4 25 11 25 16 0 12 -17 13 -22 3 -1 -5 -25 -19 -53 -31
-59 -28 -141 -39 -184 -24 -17 6 -31 9 -31 7 0 -12 63 -35 111 -40 30 -3 71
-8 92 -11 26 -3 36 -1 32 6 -4 7 3 9 22 6 l28 -6 -26 12 c-26 11 -26 11 30 39
30 15 57 26 59 24 3 -2 -16 -14 -42 -26 l-46 -23 29 -12 c17 -7 40 -10 53 -7
13 3 41 10 63 15 l40 10 -28 14 c-20 11 -32 12 -45 4 -15 -10 -15 -10 3 -6 11
3 26 2 34 -3 10 -7 8 -9 -10 -8 -13 0 -33 -4 -43 -8 -14 -6 -17 -5 -12 3 5 9
0 9 -19 2 -46 -18 -41 -11 15 21 65 38 65 37 57 45 -4 4 -14 1 -22 -6 -12 -10
-19 -10 -27 -2 -9 9 -8 12 4 12 8 0 21 7 28 15 10 12 9 15 -5 15 -10 0 -15 -3
-12 -6z"/>
<path d="M1335 664 c13 -14 19 -14 28 -4 9 10 9 11 0 6 -6 -3 -14 -2 -18 4 -3
5 -11 10 -16 10 -6 0 -3 -7 6 -16z"/>
<path d="M1516 1511 c-3 -5 1 -11 9 -15 8 -3 15 -1 15 4 0 13 -18 22 -24 11z"/>
<path d="M420 1365 c0 -9 5 -15 11 -13 6 2 11 8 11 13 0 5 -5 11 -11 13 -6 2
-11 -4 -11 -13z"/>
<path d="M1840 1306 c0 -15 18 -31 26 -23 7 7 -7 37 -17 37 -5 0 -9 -6 -9 -14z"/>
<path d="M1802 1284 c1 -9 9 -19 16 -22 9 -3 13 2 10 14 -1 9 -9 19 -16 22 -9
3 -13 -2 -10 -14z"/>
<path d="M365 1110 c3 -5 10 -10 16 -10 5 0 9 5 9 10 0 6 -7 10 -16 10 -8 0
-12 -4 -9 -10z"/>
<path d="M1720 1110 c0 -5 5 -10 11 -10 5 0 7 5 4 10 -3 6 -8 10 -11 10 -2 0
-4 -4 -4 -10z"/>
<path d="M1890 1090 c0 -11 5 -20 10 -20 6 0 10 9 10 20 0 11 -4 20 -10 20 -5
0 -10 -9 -10 -20z"/>
<path d="M1710 999 c0 -5 5 -7 10 -4 6 3 10 8 10 11 0 2 -4 4 -10 4 -5 0 -10
-5 -10 -11z"/>
<path d="M370 910 c-13 -8 -12 -10 3 -10 9 0 17 5 17 10 0 12 -1 12 -20 0z"/>
<path d="M1860 880 c0 -5 5 -10 10 -10 6 0 10 5 10 10 0 6 -4 10 -10 10 -5 0
-10 -4 -10 -10z"/>
<path d="M1665 810 c-7 -12 12 -40 27 -40 16 0 21 32 7 41 -18 12 -26 11 -34
-1z"/>
<path d="M415 730 c-3 -5 1 -10 9 -10 9 0 16 5 16 10 0 6 -4 10 -9 10 -6 0
-13 -4 -16 -10z"/>
<path d="M605 710 c-3 -5 -1 -10 4 -10 6 0 11 5 11 10 0 6 -2 10 -4 10 -3 0
-8 -4 -11 -10z"/>
<path d="M1780 660 c0 -5 7 -10 16 -10 8 0 12 5 9 10 -3 6 -10 10 -16 10 -5 0
-9 -4 -9 -10z"/>
<path d="M1595 630 c-3 -5 -1 -10 4 -10 6 0 11 5 11 10 0 6 -2 10 -4 10 -3 0
-8 -4 -11 -10z"/>
<path d="M694 595 c-3 -8 -3 -19 0 -24 10 -16 36 -1 36 20 0 22 -28 26 -36 4z"/>
<path d="M1330 440 c0 -5 4 -10 9 -10 6 0 13 5 16 10 3 6 -1 10 -9 10 -9 0
-16 -4 -16 -10z"/>
<path d="M915 470 c3 -5 10 -10 16 -10 5 0 9 5 9 10 0 6 -7 10 -16 10 -8 0
-12 -4 -9 -10z"/>
<path d="M905 440 c3 -5 11 -10 16 -10 6 0 7 5 4 10 -3 6 -11 10 -16 10 -6 0
-7 -4 -4 -10z"/>
<path d="M1537 379 c3 -10 9 -16 14 -13 13 8 11 21 -5 27 -10 4 -12 0 -9 -14z"/>
</g>
</svg>
